<svg id="visual" viewBox="0 0 960 600" width="960" height="600" xmlns="http://www.w3.org/2000/svg" xmlns:xlink="http://www.w3.org/1999/xlink" version="1.1"><rect x="0" y="0" width="960" height="600" fill="#001220"></rect><path d="M0 448L22.8 442.7C45.7 437.3 91.3 426.7 137 426.7C182.7 426.7 228.3 437.3 274 439.2C319.7 441 365.3 434 411.2 430.3C457 426.7 503 426.3 548.8 434C594.7 441.7 640.3 457.3 686 459.7C731.7 462 777.3 451 823 447.3C868.7 443.7 914.3 447.3 937.2 449.2L960 451L960 601L937.2 601C914.3 601 868.7 601 823 601C777.3 601 731.7 601 686 601C640.3 601 594.7 601 548.8 601C503 601 457 601 411.2 601C365.3 601 319.7 601 274 601C228.3 601 182.7 601 137 601C91.3 601 45.7 601 22.8 601L0 601Z" fill="#4db3d0"></path><path d="M0 447L22.8 447C45.7 447 91.3 447 137 446.8C182.7 446.7 228.3 446.3 274 451.7C319.7 457 365.3 468 411.2 475C457 482 503 485 548.8 480.5C594.7 476 640.3 464 686 463.2C731.7 462.3 777.3 472.7 823 478.7C868.7 484.7 914.3 486.3 937.2 487.2L960 488L960 601L937.2 601C914.3 601 868.7 601 823 601C777.3 601 731.7 601 686 601C640.3 601 594.7 601 548.8 601C503 601 457 601 411.2 601C365.3 601 319.7 601 274 601C228.3 601 182.7 601 137 601C91.3 601 45.7 601 22.8 601L0 601Z" fill="#81c3d9"></path><path d="M0 500L22.8 503.8C45.7 507.7 91.3 515.3 137 516.8C182.7 518.3 228.3 513.7 274 514C319.7 514.3 365.3 519.7 411.2 513.5C457 507.3 503 489.7 548.8 485.5C594.7 481.3 640.3 490.7 686 500C731.7 509.3 777.3 518.7 823 515.7C868.7 512.7 914.3 497.3 937.2 489.7L960 482L960 601L937.2 601C914.3 601 868.7 601 823 601C777.3 601 731.7 601 686 601C640.3 601 594.7 601 548.8 601C503 601 457 601 411.2 601C365.3 601 319.7 601 274 601C228.3 601 182.7 601 137 601C91.3 601 45.7 601 22.8 601L0 601Z" fill="#aad3e2"></path><path d="M0 531L22.8 532.3C45.7 533.7 91.3 536.3 137 535.7C182.7 535 228.3 531 274 532.7C319.7 534.3 365.3 541.7 411.2 545.3C457 549 503 549 548.8 543C594.7 537 640.3 525 686 520.7C731.7 516.3 777.3 519.7 823 526.2C868.7 532.7 914.3 542.3 937.2 547.2L960 552L960 601L937.2 601C914.3 601 868.7 601 823 601C777.3 601 731.7 601 686 601C640.3 601 594.7 601 548.8 601C503 601 457 601 411.2 601C365.3 601 319.7 601 274 601C228.3 601 182.7 601 137 601C91.3 601 45.7 601 22.8 601L0 601Z" fill="#d0e3eb"></path><path d="M0 572L22.8 567C45.7 562 91.3 552 137 553C182.7 554 228.3 566 274 566C319.7 566 365.3 554 411.2 550.3C457 546.7 503 551.3 548.8 556.3C594.7 561.3 640.3 566.7 686 568.2C731.7 569.7 777.3 567.3 823 564.2C868.7 561 914.3 557 937.2 555L960 553L960 601L937.2 601C914.3 601 868.7 601 823 601C777.3 601 731.7 601 686 601C640.3 601 594.7 601 548.8 601C503 601 457 601 411.2 601C365.3 601 319.7 601 274 601C228.3 601 182.7 601 137 601C91.3 601 45.7 601 22.8 601L0 601Z" fill="#f4f4f4"></path></svg>