<svg id="visual" viewBox="0 0 900 600" width="900" height="600" xmlns="http://www.w3.org/2000/svg" xmlns:xlink="http://www.w3.org/1999/xlink" version="1.1"><rect x="0" y="0" width="900" height="600" fill="#002233"></rect><path d="M0 504L21.5 484.7C43 465.3 86 426.7 128.8 427.2C171.7 427.7 214.3 467.3 257.2 487C300 506.7 343 506.3 385.8 500.5C428.7 494.7 471.3 483.3 514.2 476.8C557 470.3 600 468.7 642.8 456.5C685.7 444.3 728.3 421.7 771.2 415.7C814 409.7 857 420.3 878.5 425.7L900 431L900 601L878.5 601C857 601 814 601 771.2 601C728.3 601 685.7 601 642.8 601C600 601 557 601 514.2 601C471.3 601 428.7 601 385.8 601C343 601 300 601 257.2 601C214.3 601 171.7 601 128.8 601C86 601 43 601 21.5 601L0 601Z" fill="#0066FF" stroke-linecap="round" stroke-linejoin="miter"></path></svg>